HIERARCHY
ROOT hip
{
  OFFSET 0 0 0
  CHANNELS 6 Xposition Yposition Zposition Zrotation Yrotation Xrotation
  JOINT abdomen
  {
    OFFSET 0 20.6881 -0.73152
    CHANNELS 3 Zrotation Xrotation Yrotation
    JOINT chest
    {
      OFFSET 0 11.7043 -0.48768
      CHANNELS 3 Zrotation Xrotation Yrotation
      JOINT neck
      {
        OFFSET 0 22.1894 -2.19456
        CHANNELS 3 Zrotation Xrotation Yrotation
        JOINT head
        {
          OFFSET -0.24384 7.07133 1.2192
          CHANNELS 3 Zrotation Xrotation Yrotation
          JOINT leftEye
          {
            OFFSET 4.14528 8.04674 8.04672
            CHANNELS 3 Zrotation Xrotation Yrotation
            End Site
            {
              OFFSET 1 0 0
            }
          }
          JOINT rightEye
          {
            OFFSET -3.6576 8.04674 8.04672
            CHANNELS 3 Zrotation Xrotation Yrotation
            End Site
            {
              OFFSET 1 0 0
            }
          }
        }
      }
      JOINT rCollar
      {
        OFFSET -2.68224 19.2634 -4.8768
        CHANNELS 3 Zrotation Xrotation Yrotation
        JOINT rShldr
        {
          OFFSET -8.77824 -1.95073 1.46304
          CHANNELS 3 Zrotation Xrotation Yrotation
          JOINT rForeArm
          {
            OFFSET -28.1742 -1.7115 0.48768
            CHANNELS 3 Zrotation Xrotation Yrotation
            JOINT rHand
            {
              OFFSET -22.5879 0.773209 7.07136
              CHANNELS 3 Zrotation Xrotation Yrotation
              JOINT rThumb1
              {
                OFFSET -1.2192 -0.487915 3.41376
                CHANNELS 3 Zrotation Xrotation Yrotation
                JOINT rThumb2
                {
                  OFFSET -3.37035 -0.52449 3.41376
                  CHANNELS 3 Zrotation Xrotation Yrotation
                  End Site
                  {
                    OFFSET -1.78271 -1.18214 1.43049
                  }
                }
              }
              JOINT rIndex1
              {
                OFFSET -7.75947 0.938293 5.60832
                CHANNELS 3 Zrotation Xrotation Yrotation
                JOINT rIndex2
                {
                  OFFSET -2.54057 -0.884171 1.56538
                  CHANNELS 3 Zrotation Xrotation Yrotation
                  End Site
                  {
                    OFFSET -1.62519 -0.234802 1.16502
                  }
                }
              }
              JOINT rMid1
              {
                OFFSET -8.24714 1.18213 3.41376
                CHANNELS 3 Zrotation Xrotation Yrotation
                JOINT rMid2
                {
                  OFFSET -3.10165 -0.590103 1.0647
                  CHANNELS 3 Zrotation Xrotation Yrotation
                  End Site
                  {
                    OFFSET -2.48547 -0.328903 0.83742
                  }
                }
              }
              JOINT rRing1
              {
                OFFSET -8.82822 0.546677 1.51678
                CHANNELS 3 Zrotation Xrotation Yrotation
                JOINT rRing2
                {
                  OFFSET -2.60934 -0.819778 -0.0198488
                  CHANNELS 3 Zrotation Xrotation Yrotation
                  End Site
                  {
                    OFFSET -2.33842 -0.294052 0.168128
                  }
                }
              }
              JOINT rPinky1
              {
                OFFSET -8.27202 -0.0477905 -0.4584
                CHANNELS 3 Zrotation Xrotation Yrotation
                JOINT rPinky2
                {
                  OFFSET -1.82734 -0.647385 -0.700984
                  CHANNELS 3 Zrotation Xrotation Yrotation
                  End Site
                  {
                    OFFSET -1.69225 -0.51767 -0.607171
                  }
                }
              }
            }
          }
        }
      }
      JOINT lCollar
      {
        OFFSET 2.68224 19.2634 -4.8768
        CHANNELS 3 Zrotation Xrotation Yrotation
        JOINT lShldr
        {
          OFFSET 8.77824 -1.95073 1.46304
          CHANNELS 3 Zrotation Xrotation Yrotation
          JOINT lForeArm
          {
            OFFSET 28.1742 -1.7115 0.48768
            CHANNELS 3 Zrotation Xrotation Yrotation
            JOINT lHand
            {
              OFFSET 22.5879 0.773209 7.07136
              CHANNELS 3 Zrotation Xrotation Yrotation
              JOINT lThumb1
              {
                OFFSET 1.2192 -0.487915 3.41376
                CHANNELS 3 Zrotation Xrotation Yrotation
                JOINT lThumb2
                {
                  OFFSET 3.37035 -0.52449 3.41376
                  CHANNELS 3 Zrotation Xrotation Yrotation
                  End Site
                  {
                    OFFSET 1.78271 -1.18214 1.43049
                  }
                }
              }
              JOINT lIndex1
              {
                OFFSET 7.75947 0.938293 5.60832
                CHANNELS 3 Zrotation Xrotation Yrotation
                JOINT lIndex2
                {
                  OFFSET 2.54057 -0.884171 1.56538
                  CHANNELS 3 Zrotation Xrotation Yrotation
                  End Site
                  {
                    OFFSET 1.62519 -0.234802 1.16502
                  }
                }
              }
              JOINT lMid1
              {
                OFFSET 8.24714 1.18213 3.41376
                CHANNELS 3 Zrotation Xrotation Yrotation
                JOINT lMid2
                {
                  OFFSET 3.10165 -0.590103 1.0647
                  CHANNELS 3 Zrotation Xrotation Yrotation
                  End Site
                  {
                    OFFSET 2.48547 -0.328903 0.83742
                  }
                }
              }
              JOINT lRing1
              {
                OFFSET 8.82822 0.546677 1.51678
                CHANNELS 3 Zrotation Xrotation Yrotation
                JOINT lRing2
                {
                  OFFSET 2.60934 -0.819778 -0.0198488
                  CHANNELS 3 Zrotation Xrotation Yrotation
                  End Site
                  {
                    OFFSET 2.33842 -0.294052 0.168128
                  }
                }
              }
              JOINT lPinky1
              {
                OFFSET 8.27202 -0.0477905 -0.4584
                CHANNELS 3 Zrotation Xrotation Yrotation
                JOINT lPinky2
                {
                  OFFSET 1.82734 -0.647385 -0.700984
                  CHANNELS 3 Zrotation Xrotation Yrotation
                  End Site
                  {
                    OFFSET 1.69225 -0.51767 -0.607171
                  }
                }
              }
            }
          }
        }
      }
    }
  }
  JOINT rButtock
  {
    OFFSET -8.77824 4.35084 1.2192
    CHANNELS 3 Zrotation Xrotation Yrotation
    JOINT rThigh
    {
      OFFSET 0 -1.70687 -2.19456
      CHANNELS 3 Zrotation Xrotation Yrotation
      JOINT rShin
      {
        OFFSET 0 -36.8199 0.73152
        CHANNELS 3 Zrotation Xrotation Yrotation
        JOINT rFoot
        {
          OFFSET 0.73152 -45.1104 -5.12064
          CHANNELS 3 Zrotation Xrotation Yrotation
          End Site
          {
            OFFSET -1.1221 -3.69964 12.103
          }
        }
      }
    }
  }
  JOINT lButtock
  {
    OFFSET 8.77824 4.35084 1.2192
    CHANNELS 3 Zrotation Xrotation Yrotation
    JOINT lThigh
    {
      OFFSET 0 -1.70687 -2.19456
      CHANNELS 3 Zrotation Xrotation Yrotation
      JOINT lShin
      {
        OFFSET 0 -36.8199 0.73152
        CHANNELS 3 Zrotation Xrotation Yrotation
        JOINT lFoot
        {
          OFFSET -0.73152 -45.1104 -5.12064
          CHANNELS 3 Zrotation Xrotation Yrotation
          End Site
          {
            OFFSET 1.1221 -3.69964 12.103
          }
        }
      }
    }
  }
}
MOTION
Frames:	4
Frame Time:	0.03333
-0.07013999857008457 57.51960277557373 0.23300000466406345 1.4377999635692296 -10.073799903074908 358.4960023626759 -7.834479695003916 18.361500215549604 6.5549901761823595 1.073999969268844 -13.775799999262254 1.6228799473865922 -2.172669941489539 10.447300260100594 -0.8091909738265108 4.920340212030248 -17.62409933237669 -0.6193180114807975 -0.0 0.0 0.0 -0.0 0.0 0.0 1.201469973011813e-14 -5.280280217092636e-14 4.931410031592029e-14 17.83579933815394 30.285000723228592 60.53990080278494 -26.924600585548387 -45.0558004826635 92.55850257510573 -2.7875099101957472 -42.74740144887429 -7.358780071200977 3.058339879981605e-10 3.6662999255733424e-10 7.737550061037296e-10 5.126839956039859e-10 6.083519992600609e-10 1.341309980768491e-09 3.058390073110172e-10 3.6662999255733424e-10 7.737470050208591e-10 7.730910121524428 5.474879855648998 0.41731399283890674 3.0583500676958193e-10 3.66625992015899e-10 7.737509807142109e-10 2.90554006136521 0.9651829962377875 0.10290200252939893 3.058379885395958e-10 3.66624998092561e-10 7.737530182570537e-10 10.278599710243157 0.7318009818271524 0.025912300303053633 3.058260117633734e-10 3.666289986339963e-10 7.737610193399243e-10 2.221669932038622 -0.7334870246959406 -0.20891999872313852 1.2029699728247505e-14 -5.280100044221925e-14 4.9137100186333e-14 -38.49330008660189 31.151700502484434 -60.163803266327356 28.287899513693763 -29.693099944849873 -66.48609956965797 0.6187919801930006 -11.256500091828684 1.2851200492968802 -3.21104998883789e-10 -3.85591999878676e-11 6.29151982041995e-10 -5.603469929217278e-10 -2.958100040179636e-11 1.0760099755542394e-09 -3.211110121199836e-10 -3.8560398907894006e-11 6.291650024377222e-10 -7.730910121524428 5.474879855648998 -0.41731399283890674 -3.211059928071269e-10 -3.856079958323962e-11 6.291550135081758e-10 -2.90554006136521 0.9651829962377875 -0.10290200252939893 -3.211110121199836e-10 -3.8560700190905825e-11 6.29149994195319e-10 -10.278599710243157 0.7318009818271524 -0.025912300303053633 -3.21104998883789e-10 -3.856079958323962e-11 6.291409991891106e-10 -2.221669932038622 -0.7334870246959406 0.20891999872313852 -2.0321699793705798e-16 0.0 -3.882510030490358e-19 -35.8101012522974 -59.12140028576752 -16.2803005943117 -85.08589996270743 88.97750269515974 85.8754015288692 -6.887249850999507 -29.920999451791104 -10.21670026711627 2.0321699793705798e-16 0.0 3.882510030490358e-19 49.43939881650476 -38.57740020585226 46.44450088433216 155.29399500734795 87.63160025883039 -156.7390034885342 10.300200183493322 -21.359299270572176 18.369399329324725
-0.0674299984893878 57.537198066711426 0.4170000087469816 0.05030000099773993 -7.960300317252013 357.7200109106924 -6.416129869035061 19.250399817155284 2.5152099047812024 2.1318100423272304 -14.488400465558856 0.6593120240832484 -1.8493200350012615 10.205499610651096 0.07407190077480073 5.147919980740958 -16.339200730619307 1.0642600127907 -0.0 0.0 0.0 -0.0 0.0 0.0 2.3237600357726494e-14 1.3914200276814749e-14 1.4908899833016128e-16 24.133100564216882 42.5786001537266 52.5883994767312 -24.135200847386663 -49.221000102699016 102.8540018809028 -6.02342985025247 -54.946600834853555 -11.555400268965844 -4.31162005855389e-10 -3.7430400010545263e-10 -3.288690124021802e-11 -7.406539796104008e-10 -6.179120011900367e-10 -7.836569922062131e-11 -4.311569865425323e-10 -3.7430099348735526e-10 -3.290280090761491e-11 7.730910121524428 5.474879855648998 0.41731399283890674 -4.31161011932051e-10 -3.7430899457022585e-10 -3.289010043096207e-11 2.90554006136521 0.9651829962377875 0.10290200252939893 -4.311569865425323e-10 -3.7430998849356377e-10 -3.288450029415477e-11 10.278599710243157 0.7318009818271524 0.025912300303053633 -4.311710008615975e-10 -3.7430499402879055e-10 -3.287420076356518e-11 2.221669932038622 -0.7334870246959406 -0.20891999872313852 2.3180099732977784e-14 1.3916299260426402e-14 -1.4908899833016128e-16 -41.34550170663459 21.683400284425744 -65.70139962648271 25.07069941460475 -21.248499941856227 -53.20080106790371 0.024946500548737923 4.5041400736345825 -0.6343359966400688 -3.0302501155659234e-10 5.805379988744955e-10 1.7508000597456393e-10 -5.236220225458727e-10 1.0003099911500615e-09 3.0583100622814664e-10 -3.0303298779137945e-10 5.805340231811437e-10 1.7509300152220774e-10 -7.730910121524428 5.474879855648998 -0.41731399283890674 -3.030260054799303e-10 5.805329795616388e-10 1.7508300016861953e-10 -2.90554006136521 0.9651829962377875 -0.10290200252939893 -3.0303400656280085e-10 5.805329795616388e-10 1.7507699935646662e-10 -10.278599710243157 0.7318009818271524 -0.025912300303053633 -3.030260054799303e-10 5.805350171044817e-10 1.7507000462097573e-10 -2.221669932038622 -0.7334870246959406 0.20891999872313852 -2.0321699793705798e-16 0.0 -3.882510030490358e-19 -37.73169984319962 -56.1562990538491 -20.669100117205925 -71.84550312455684 88.9407972585601 72.73049756550456 -8.301769648391277 -30.104000710223254 -12.309199582562314 2.0321699793705798e-16 0.0 3.882510030490358e-19 50.682701566216764 -39.61389848787462 45.27010108296724 158.490004444537 87.2560969488306 -159.85000439131326 9.753860181973172 -21.317100654332542 17.45400030128669
-0.004789998820342589 57.49970078468323 0.46900000888854265 -1.152899966683304 -5.569900166721746 357.09600482812 -5.9735698961982004 20.379899662463828 0.217027993556899 3.402340060505023 -14.813500394578536 0.17596000040852963 -1.9844700553253616 8.669110028559256 0.34475798718334555 6.13601996919143 -14.638900268825502 1.7276599584530539 -0.0 0.0 0.0 -0.0 0.0 0.0 1.3955700701344571e-14 -3.1730799338996486e-14 -1.0044800122386394e-13 38.83740160189255 54.16099930670786 33.12070060622654 -21.68999995471127 -51.560500402873885 109.96299937283547 -9.491230016876072 -62.29319670234887 -15.573700449200956 -1.0106100187013136e-09 -7.646459968883519e-10 -4.322930098577132e-11 -1.7359900802003223e-09 -1.1226000326286565e-09 -1.3323100049432871e-10 -1.0106100187013136e-09 -7.646530040478845e-10 -4.324019997637411e-11 7.730910121524428 5.474879855648998 0.41731399283890674 -1.0106100187013136e-09 -7.646580233607411e-10 -4.322370084896402e-11 2.90554006136521 0.9651829962377875 0.10290200252939893 -1.0106100187013136e-09 -7.646590172840791e-10 -4.322420091664343e-11 10.278599710243157 0.7318009818271524 0.025912300303053633 -1.0106199579346932e-09 -7.646489786583657e-10 -4.321000023695237e-11 2.221669932038622 -0.7334870246959406 -0.20891999872313852 1.3884400472634566e-14 -3.173109962711434e-14 -1.0067500084168026e-13 -65.55039780431207 9.622260365913597 -72.02920106228434 17.834600639954605 -12.857699631407481 -28.61290040497048 1.0752399687683185 47.272999415560115 -6.738670184663281 -1.3725900403143482e-09 1.2510599724984221e-08 -2.85712010021214e-10 -2.3587999368151453e-09 2.1340000017205116e-08 -3.8689099556117756e-10 -1.3725900403143482e-09 1.2510599724984221e-08 -2.8570000839690815e-10 -7.730910121524428 5.474879855648998 -0.41731399283890674 -1.3725800016886349e-09 1.2510599724984221e-08 -2.8570999732645464e-10 -2.90554006136521 0.9651829962377875 -0.10290200252939893 -1.3725900403143482e-09 1.2510599724984221e-08 -2.85712010021214e-10 -10.278599710243157 0.7318009818271524 -0.025912300303053633 -1.3725800016886349e-09 1.2510599724984221e-08 -2.8571499179122786e-10 -2.221669932038622 -0.7334870246959406 0.20891999872313852 -2.0321699793705798e-16 0.0 -3.882510030490358e-19 -40.5276002139039 -53.259899279697244 -25.182499366034104 -67.87520295248764 88.91960318156555 68.82229747336912 -9.072680293405922 -30.111298767351414 -13.428400356376128 2.0321699793705798e-16 0.0 3.882510030490358e-19 51.00309890999289 -41.23240060416835 43.94929959183768 160.98900673730458 86.8654032981167 -162.2849941511795 9.411000053564164 -21.237399176907665 16.927800820081618
-0.16909000423765974 57.29789733886719 0.4520000089542009 -1.8362000953793132 -3.2751999310866435 357.1829941173893 -5.305819867086489 21.305499578027277 -1.6776000079221496 4.726239896196826 -14.919300024822034 -0.1681909937329707 -2.2516200981057164 7.330460399354811 0.6302510099078722 6.593680209622719 -14.222399602106355 2.400329964922996 -0.0 0.0 0.0 -0.0 0.0 0.0 7.964380231182518e-15 -7.553700286442023e-14 -1.6369900390162993e-13 64.95779693154341 58.583502398061505 1.6791699909359004 -20.955199666064832 -52.573400381313846 111.84199807388431 -12.290700015195336 -66.33890216285502 -18.708400400852675 -1.1443799741256495e-09 -1.5296600435887494e-09 9.661890253754044e-11 -1.9688200014561806e-09 -2.2875000510281047e-09 9.437740041375816e-11 -1.14437003489227e-09 -1.529669982822129e-09 9.661569713477553e-11 7.730910121524428 5.474879855648998 0.41731399283890674 -1.1443799741256495e-09 -1.5296800214478423e-09 9.663159990818285e-11 2.90554006136521 0.9651829962377875 0.10290200252939893 -1.14437003489227e-09 -1.5296800214478423e-09 9.662520152669474e-11 10.278599710243157 0.7318009818271524 0.025912300303053633 -1.1443799741256495e-09 -1.5296600435887494e-09 9.6641197480415e-11 2.221669932038622 -0.7334870246959406 -0.20891999872313852 7.889230096476718e-15 -7.553970242426759e-14 -1.6384799533949755e-13 -95.09009853059261 1.978279982946626 -79.6143993431503 4.5787300082393525 -1.4471899795741163 -7.959630104939706 97.38509673323027 81.70059866286066 -105.54000109276699 -2.1092100826653153e-09 2.038469974502212e-08 -4.867580022950375e-10 -3.615119831131905e-09 3.471880131955913e-08 -6.699909998983232e-10 -2.1092100826653153e-09 2.038469974502212e-08 -4.867490072888289e-10 -7.730910121524428 5.474879855648998 -0.41731399283890674 -2.1092100826653153e-09 2.038469974502212e-08 -4.867580022950375e-10 -2.90554006136521 0.9651829962377875 -0.10290200252939893 -2.1092100826653153e-09 2.038469974502212e-08 -4.867560144483615e-10 -10.278599710243157 0.7318009818271524 -0.025912300303053633 -2.109199944647268e-09 2.038469974502212e-08 -4.867550205250236e-10 -2.221669932038622 -0.7334870246959406 0.20891999872313852 -2.0321699793705798e-16 0.0 -3.882510030490358e-19 -42.83779900253941 -50.99699955106407 -29.155099604306308 -73.81200337906273 88.95889725986063 74.80389711071032 -9.496950300305958 -30.074900689264414 -14.034199715942178 2.0321699793705798e-16 0.0 3.882510030490358e-19 51.71399865918616 -43.114899777166826 43.242501371241005 163.43100427125924 86.36179979023332 -164.6719950019372 9.10199034268174 -21.210599222151828 16.423099359289157
